<html>
<head>
<meta charset="UTF-8">
<meta name="viewport" content="width=device-width, initial-scale=1.0"/>

<style>
.comment
{
    padding-left: 20px;
    margin-top: 4px;
    margin-right: 4px;
    margin-bottom: 4px;
    border: 2px #000 solid;
}
.submission
{
    border: 4px #00f solid;
    padding-left: 20px;
}
.hidden
{
    display: none;
}
</style>
</head>
<body><div class="submission" id="t3_6h7d2y">
    <p class="userinfo">
        <a href="https://www.reddit.com/u/TheMrMcGibblets">TheMrMcGibblets</a>
        <span class="score"> | 31 points</span>
        <span class="timestamp"> | Jun 14 2017 13:06:37</span>
    </p>
    <strong>[MOVIE] Waiting 2005 1080p BluRay x264 [7.95GB]</strong>
    <p><p>Add mega</p>
<p>.nz/#!MWR13A7S</p>
<p>!1MJAaYC9gru9HYy-O5ydqODj0aRr4_Ei9X2k1ETby2c</p>
<pre><code>Video
ID                                       : 1
Format                                   : AVC
Format/Info                              : Advanced Video Codec
Format profile                           : High@L4.1
Format settings, CABAC                   : Yes
Format settings, ReFrames                : 5 frames
Codec ID                                 : V_MPEG4/ISO/AVC
Duration                                 : 1h 33mn
Bit rate                                 : 10.6 Mbps
Width                                    : 1 920 pixels
Height                                   : 1 080 pixels
Display aspect ratio                     : 16:9
Frame rate mode                          : Constant
Frame rate                               : 23.976 fps
Color space                              : YUV
Chroma subsampling                       : 4:2:0
Bit depth                                : 8 bits
Scan type                                : Progressive
Bits/(Pixel*Frame)                       : 0.213
Stream size                              : 6.80 GiB (86%)
Writing library                          : x264 core 65 r1028M 83baa7f
Encoding settings                        : cabac=1 / ref=5 / deblock=1:0:0 / analyse=0x3:0x133 / me=umh / subme=7 / psy_rd=1.0:0.0 / mixed_ref=1 / me_range=16 / chroma_me=1 / trellis=1 / 8x8dct=1 / cqm=0 / deadzone=21,11 / chroma_qp_offset=-2 / threads=3 / nr=0 / decimate=1 / mbaff=0 / bframes=3 / b_pyramid=1 / b_adapt=1 / b_bias=0 / direct=1 / wpredb=1 / keyint=250 / keyint_min=25 / scenecut=40(pre) / rc=2pass / bitrate=10595 / ratetol=1.0 / qcomp=0.60 / qpmin=10 / qpmax=51 / qpstep=4 / cplxblur=20.0 / qblur=0.5 / ip_ratio=1.40 / pb_ratio=1.30 / aq=1:1.00
Language                                 : English
Default                                  : Yes
Forced                                   : No

Audio
ID                                       : 2
Format                                   : DTS
Format/Info                              : Digital Theater Systems
Mode                                     : 16
Format settings, Endianness              : Big
Codec ID                                 : A_DTS
Duration                                 : 1h 33mn
Bit rate mode                            : Constant
Bit rate                                 : 1 510 Kbps
Channel(s)                               : 6 channels
Channel positions                        : Front: L C R, Side: L R, LFE
Sampling rate                            : 48.0 KHz
Bit depth                                : 16 bits
Compression mode                         : Lossy
Stream size                              : 1 015 MiB (12%)
Language                                 : English
Default                                  : Yes
Forced                                   : No
</code></pre></p>
    <p class="toolbar">
        <a href="https://www.reddit.com/r/megalinks/comments/6h7d2y">permalink</a>
    </p>
</div>
<div class="comment" id="t1_diw5zwr">
    <p class="userinfo">
        <a
        class="toggle_hide_button"
        href="javascript:void(0)"
        onclick="toggle_collapse(this.parentElement.parentElement)">[-]
        </a>
        <a href="https://www.reddit.com/u/Shanks01">Shanks01</a>
        <span class="score"> | 2 points</span>
        <span class="timestamp"> | Jun 14 2017 14:46:45</span>
    </p>
    <div class="collapsible">
        <p>Gracias por compartir .</p>
        <p class="toolbar">
            <a href="https://www.reddit.com/r/megalinks/comments/6h7d2y/_/diw5zwr">permalink</a>
        </p>
        
    </div>
</div>

<div class="comment" id="t1_diw6xtm">
    <p class="userinfo">
        <a
        class="toggle_hide_button"
        href="javascript:void(0)"
        onclick="toggle_collapse(this.parentElement.parentElement)">[-]
        </a>
        [deleted]
        <span class="score"> | 2 points</span>
        <span class="timestamp"> | Jun 14 2017 15:03:43</span>
    </p>
    <div class="collapsible">
        <p>Ooooo this is a throwback nice upload :)</p>
        <p class="toolbar">
            <a href="https://www.reddit.com/r/megalinks/comments/6h7d2y/_/diw6xtm">permalink</a>
        </p>
        
    </div>
</div>

<div class="comment" id="t1_dixeg8q">
    <p class="userinfo">
        <a
        class="toggle_hide_button"
        href="javascript:void(0)"
        onclick="toggle_collapse(this.parentElement.parentElement)">[-]
        </a>
        <a href="https://www.reddit.com/u/HTPC-">HTPC-</a>
        <span class="score"> | 2 points</span>
        <span class="timestamp"> | Jun 15 2017 05:47:13</span>
    </p>
    <div class="collapsible">
        <p>Awesome, thanks!</p>
        <p class="toolbar">
            <a href="https://www.reddit.com/r/megalinks/comments/6h7d2y/_/dixeg8q">permalink</a>
        </p>
        
    </div>
</div>
</body>

<script>
function toggle_collapse(comment_div)
{
    var button = comment_div.getElementsByClassName("toggle_hide_button")[0];
    var collapsible = comment_div.getElementsByClassName("collapsible")[0];
    if (collapsible.classList.contains("hidden"))
    {
        collapsible.classList.remove("hidden");
        button.innerText = "[-]";
    }
    else
    {
        collapsible.classList.add("hidden");
        button.innerText = "[+]";
    }
}
</script>
</html>
